<svg width="327" height="261" viewBox="0 0 327 261" fill="none" xmlns="http://www.w3.org/2000/svg">
<g clip-path="url(#clip0_14123_97697)">
<path opacity="0.4" d="M216.92 278.838C274.425 258.695 304.713 195.748 284.57 138.242C264.427 80.737 201.48 50.4492 143.974 70.5926C86.4689 90.736 56.181 153.683 76.3244 211.188C96.4678 268.694 159.415 298.982 216.92 278.838Z" fill="#FFF9D6"/>
<path d="M253.904 96.3428L291.906 204.832C292.636 206.914 291.568 209.249 289.419 210.002L117.314 270.288C115.164 271.041 112.873 269.883 112.143 267.801L74.1411 159.311C73.3881 157.162 74.4792 154.894 76.6288 154.141L248.734 93.855C250.883 93.102 253.151 94.1932 253.904 96.3428Z" fill="#275CE6"/>
<path d="M291.154 202.682L291.907 204.831C292.636 206.914 291.568 209.249 289.419 210.002L117.314 270.288C115.164 271.041 112.873 269.882 112.144 267.8L111.391 265.65C112.144 267.8 114.411 268.891 116.561 268.138L288.666 207.852C290.839 207.166 291.907 204.831 291.154 202.682Z" fill="#194AD6"/>
<path opacity="0.1" d="M202.636 238.063L198.095 225.098" stroke="#0A2B9B" stroke-width="2" stroke-miterlimit="10"/>
<path d="M285.483 204.366L209.037 231.144C208.365 231.38 207.62 231.188 207.23 230.722C205.352 228.589 202.298 227.622 199.409 228.634C196.521 229.646 194.714 232.24 194.601 235.145C194.544 235.844 194.057 236.392 193.452 236.603L116.872 263.429L116.048 261.078L113.789 254.629L105.647 231.386L274.259 172.323L282.401 195.566L285.483 204.366Z" fill="#C9DBF7"/>
<path d="M193.934 108.148L220.468 98.853C222.664 95.2179 222.351 90.878 221.016 85.9909C206.216 86.8009 194.999 96.7635 193.934 108.148Z" fill="#60CFAC"/>
<path d="M193.934 108.148L220.468 98.853C222.664 95.2179 222.351 90.878 221.016 85.9909C206.216 86.8009 194.999 96.7635 193.934 108.148Z" fill="#60CFAC"/>
<path d="M202.868 105.018C204.207 99.7976 213.728 89.298 220.949 86.0143" stroke="#4BB494" stroke-width="2" stroke-miterlimit="10" stroke-linecap="round" stroke-linejoin="round"/>
<path d="M260.206 100.771L238.777 108.277L241.107 114.928L262.536 107.421L260.206 100.771Z" fill="#FF2C77"/>
<path d="M262.766 112.168L241.337 119.675L243.666 126.325L265.096 118.819L262.766 112.168Z" fill="#FFDC6E"/>
<path d="M115.651 218.605L94.2217 226.111L96.5512 232.762L117.98 225.255L115.651 218.605Z" fill="#FF2C77"/>
<path d="M109.263 198.217L87.834 205.724L90.1635 212.374L111.593 204.868L109.263 198.217Z" fill="#60CFAC"/>
<path d="M285.403 176.791L263.974 184.298L266.303 190.948L287.732 183.442L285.403 176.791Z" fill="#60CFAC"/>
<path d="M103.578 188.444L82.1484 195.95L84.478 202.601L105.907 195.094L103.578 188.444Z" fill="#AEC7FF"/>
<path d="M283.648 199.127L199.342 228.658L115.036 258.19L76.8691 149.23C104.29 137.513 132.437 127.654 161.175 119.699C188.596 107.982 216.742 98.1225 245.481 90.1675L283.648 199.127Z" fill="#FAF7F1"/>
<path opacity="0.5" d="M199.342 228.657L189.953 201.854L161.151 119.631" stroke="#BDCDDD" stroke-width="2" stroke-miterlimit="10"/>
<g opacity="0.9">
<path d="M319.861 157.179L299.103 148.084C296.52 146.953 295.394 143.953 296.458 141.393L299.134 135.252C300.265 132.669 303.264 131.543 305.824 132.607L326.582 141.701C327.194 141.94 327.453 142.679 327.214 143.29L321.45 156.547C321.212 157.158 320.473 157.417 319.861 157.179Z" fill="#FAF7F1"/>
<path d="M323.67 140.439L308.474 133.799L301.719 149.256L316.915 155.896L323.67 140.439Z" fill="#7196FF"/>
</g>
<g opacity="0.9">
<path d="M291.015 107.553L294.202 103.948L297.578 106.913L295.1 109.742L291.015 107.553Z" fill="#FFA245"/>
<path d="M297.563 88.1382L312.941 101.682L297.806 107.134L293.996 103.793L297.563 88.1382Z" fill="#FFDFAF"/>
<path d="M334.851 45.9126L297.577 88.1113L312.888 101.636L350.162 59.4369L334.851 45.9126Z" fill="#FFB05A"/>
</g>
<g opacity="0.9">
<path opacity="0.9" d="M26.2629 169.89L14.7472 173.924C10.8136 175.301 6.50283 173.227 5.12495 169.294L2.5489 161.94C1.17102 158.006 3.24521 153.695 7.1788 152.317L18.6945 148.284C22.6281 146.906 26.9389 148.98 28.3167 152.913L30.8728 160.21C32.2507 164.144 30.1965 168.512 26.2629 169.89ZM8.97604 157.448C7.89288 157.827 7.30025 159.059 7.67967 160.142L10.2357 167.439C10.6152 168.523 11.8468 169.115 12.93 168.736L24.4457 164.702C25.5288 164.323 26.1215 163.091 25.7421 162.008L23.186 154.711C22.8066 153.627 21.5749 153.035 20.4918 153.414L8.97604 157.448Z" fill="#73A1FF"/>
<path d="M36.9241 144.778C35.6471 144.969 34.3529 145.294 33.0987 145.734C31.8446 146.173 30.6303 146.726 29.513 147.374L12.9235 153.185L18.6747 169.603C22.2492 179.808 34.2091 184.899 45.4398 180.965C56.6705 177.031 62.8393 165.59 59.2648 155.385L53.5136 138.967L36.9241 144.778Z" fill="#5886F9"/>
<path d="M39.6883 164.546C50.8969 160.62 57.0866 149.168 53.5132 138.966C49.9399 128.765 37.9568 123.679 26.7482 127.605C15.5395 131.531 9.34987 142.984 12.9232 153.185C16.4965 163.386 28.4797 168.473 39.6883 164.546Z" fill="#73A1FF"/>
<path d="M50.3215 140.084C50.8208 141.509 51.072 142.957 51.1322 144.408C51.1667 145.42 51.1242 146.395 50.9677 147.41C50.0684 153.613 45.4546 159.262 38.6136 161.658C31.7726 164.054 24.6996 162.5 20.0691 158.233C19.3134 157.538 18.6719 156.803 18.0673 155.99C17.2089 154.819 16.5016 153.531 16.0024 152.105C12.987 143.497 18.1899 133.866 27.6533 130.551C37.1737 127.216 47.3062 131.475 50.3215 140.084Z" fill="#356DF8"/>
<path d="M51.0236 147.39C50.1244 153.594 45.5106 159.242 38.6695 161.638C31.8285 164.035 24.7556 162.48 20.125 158.214C21.0242 152.01 25.6181 146.305 32.4591 143.909C39.2431 141.532 46.393 143.124 51.0236 147.39Z" fill="#2258E2"/>
<path d="M46.3086 155.122L49.6435 164.642" stroke="#C9CDE0" stroke-width="2" stroke-miterlimit="10" stroke-linecap="round"/>
<path d="M54.1577 165.109L51.8984 169.805C51.7502 170.113 51.4081 170.233 51.1572 170.065L46.4616 167.805C46.1537 167.657 46.0339 167.315 46.202 167.064L48.4614 162.369C48.6095 162.061 48.9516 161.941 49.2025 162.109L53.8981 164.368C54.206 164.517 54.3259 164.859 54.1577 165.109Z" fill="#FFCA80"/>
</g>
<path d="M241.723 106.568L256.547 148.888C256.924 149.963 256.356 151.142 255.282 151.519L210.408 167.238L194.219 121.021L239.092 105.302C240.1 104.949 241.346 105.493 241.723 106.568Z" fill="#EAF0F8"/>
<path d="M194.218 121.02L210.431 167.305L193.234 173.328C192.159 173.705 190.98 173.138 190.604 172.063L175.779 129.742C175.403 128.667 175.97 127.488 177.045 127.111L194.242 121.087L194.218 121.02Z" fill="#DBE4EF"/>
<path d="M178.275 129.546C178.609 129.429 178.785 129.064 178.668 128.73C178.551 128.396 178.186 128.22 177.852 128.337C177.518 128.454 177.342 128.82 177.459 129.153C177.576 129.487 177.941 129.663 178.275 129.546Z" fill="#DBE4EF"/>
<path d="M180.223 128.864C180.557 128.747 180.733 128.381 180.616 128.047C180.499 127.713 180.134 127.537 179.8 127.654C179.466 127.771 179.29 128.137 179.407 128.471C179.524 128.805 179.89 128.981 180.223 128.864Z" fill="#DBE4EF"/>
<path d="M182.104 128.205C182.438 128.088 182.614 127.723 182.497 127.389C182.38 127.055 182.015 126.879 181.681 126.996C181.347 127.113 181.171 127.479 181.288 127.813C181.405 128.146 181.77 128.322 182.104 128.205Z" fill="#DBE4EF"/>
<path d="M205.189 130.376C206.784 129.817 207.624 128.071 207.065 126.475C206.507 124.88 204.76 124.04 203.165 124.599C201.57 125.157 200.729 126.904 201.288 128.499C201.847 130.094 203.593 130.934 205.189 130.376Z" fill="#DBE4EF"/>
<path d="M238.582 130.972L214.801 139.302C214.466 139.419 214.103 139.245 213.985 138.909L209.844 127.086C209.726 126.75 209.901 126.387 210.236 126.27L234.017 117.94C234.353 117.822 234.715 117.997 234.833 118.333L238.975 130.156C239.092 130.491 238.918 130.854 238.582 130.972Z" fill="#DBE4EF"/>
<path d="M218.297 121.938L209.699 124.95C209.43 125.044 209.091 124.937 208.973 124.601L208.526 123.325C208.432 123.056 208.539 122.717 208.875 122.599L217.474 119.587C217.743 119.493 218.082 119.6 218.199 119.936L218.647 121.212C218.764 121.548 218.633 121.82 218.297 121.938Z" fill="#DBE4EF"/>
<path d="M212.412 150.999C214.008 150.44 214.848 148.694 214.289 147.098C213.73 145.503 211.984 144.663 210.389 145.222C208.793 145.78 207.953 147.527 208.512 149.122C209.071 150.717 210.817 151.558 212.412 150.999Z" fill="#DBE4EF"/>
<path d="M243.24 144.273L219.46 152.603C219.124 152.72 218.761 152.546 218.644 152.21L217.067 147.709C216.95 147.373 217.124 147.01 217.46 146.893L241.24 138.563C241.576 138.445 241.939 138.62 242.057 138.956L243.633 143.456C243.751 143.792 243.576 144.155 243.24 144.273Z" fill="#DBE4EF"/>
<path d="M225.521 142.561L216.923 145.573C216.654 145.667 216.315 145.56 216.197 145.224L215.75 143.948C215.656 143.679 215.763 143.34 216.099 143.222L224.697 140.21C224.966 140.116 225.305 140.223 225.423 140.559L225.87 141.835C225.964 142.104 225.857 142.443 225.521 142.561Z" fill="#DBE4EF"/>
<path d="M163.328 171.058C163.462 171.011 163.553 171.055 163.6 171.189L180.871 220.496C180.919 220.631 180.875 220.721 180.741 220.768L125.522 240.111C125.388 240.158 125.297 240.114 125.25 239.98L107.978 190.673C107.931 190.538 107.975 190.448 108.109 190.4L163.328 171.058ZM162.975 170.05L107.756 189.393C107.084 189.628 106.735 190.354 106.97 191.026L124.242 240.333C124.477 241.005 125.203 241.354 125.875 241.118L181.093 221.776C181.765 221.541 182.114 220.815 181.879 220.143L164.607 170.836C164.372 170.164 163.646 169.815 162.975 170.05Z" fill="#DBE4EF"/>
<path d="M131.055 192.394C132.466 191.899 134.008 192.641 134.502 194.052C134.996 195.463 134.254 197.005 132.844 197.499C131.433 197.993 129.891 197.251 129.397 195.84C128.903 194.43 129.645 192.888 131.055 192.394ZM130.797 191.655C128.983 192.29 128.023 194.285 128.658 196.099C129.293 197.913 131.289 198.873 133.103 198.238C134.916 197.603 135.876 195.607 135.241 193.793C134.606 191.979 132.61 191.019 130.797 191.655Z" fill="#DBE4EF"/>
<path d="M130.959 193.408L131.832 193.102L133.966 195.748L133.207 196.165L132.77 195.564L131.695 195.94L131.729 196.683L130.99 196.941L130.959 193.408ZM131.617 195.289L132.289 195.053L131.577 194.096L131.617 195.289Z" fill="#DBE4EF"/>
<path d="M140.124 189.217C141.534 188.723 143.076 189.465 143.571 190.875C144.065 192.286 143.323 193.828 141.912 194.322C140.501 194.816 138.959 194.074 138.465 192.664C137.971 191.253 138.713 189.711 140.124 189.217ZM139.865 188.478C138.051 189.113 137.091 191.109 137.726 192.922C138.362 194.736 140.357 195.696 142.171 195.061C143.985 194.426 144.945 192.43 144.309 190.616C143.674 188.803 141.679 187.843 139.865 188.478Z" fill="#DBE4EF"/>
<path d="M141.694 193.267L140.686 193.62L139.604 190.53L140.678 190.154C141.417 189.895 141.847 190.046 142.036 190.583C142.153 190.919 142.022 191.191 141.801 191.42C142.184 191.437 142.456 191.568 142.597 191.971C142.741 192.599 142.433 193.009 141.694 193.267ZM140.732 190.738L140.464 190.832L140.699 191.504L140.968 191.41C141.236 191.316 141.391 191.111 141.32 190.909C141.182 190.731 141.068 190.621 140.732 190.738ZM141.156 191.947L140.887 192.042L141.169 192.848L141.438 192.754C141.774 192.636 141.861 192.454 141.767 192.186C141.74 191.894 141.492 191.83 141.156 191.947Z" fill="#DBE4EF"/>
<path d="M151.122 191.548C149.51 192.113 147.696 191.24 147.131 189.628C146.566 188.015 147.439 186.201 149.051 185.637C150.664 185.072 152.478 185.945 153.043 187.557C153.607 189.169 152.734 190.983 151.122 191.548Z" fill="#DBE4EF"/>
<path d="M149.193 186.04C150.604 185.546 152.146 186.288 152.64 187.699C153.134 189.109 152.392 190.651 150.981 191.145C149.571 191.64 148.029 190.898 147.535 189.487C147.04 188.076 147.782 186.534 149.193 186.04ZM148.934 185.301C147.12 185.936 146.16 187.932 146.796 189.746C147.431 191.559 149.426 192.52 151.24 191.884C153.054 191.249 154.014 189.253 153.379 187.44C152.743 185.626 150.748 184.666 148.934 185.301Z" fill="#DBE4EF"/>
<path d="M150.786 190.158C149.846 190.487 149.096 190.071 148.743 189.063C148.414 188.123 148.783 187.239 149.724 186.91C150.06 186.792 150.352 186.765 150.6 186.829L150.701 187.548C150.453 187.484 150.204 187.42 149.936 187.515C149.465 187.679 149.247 188.133 149.459 188.737C149.671 189.342 150.124 189.56 150.594 189.395C150.863 189.301 151.041 189.164 151.239 188.868L151.542 189.516C151.434 189.855 151.122 190.04 150.786 190.158Z" fill="#DBE4EF"/>
<path d="M158.261 182.863C159.672 182.369 161.214 183.111 161.708 184.522C162.202 185.932 161.46 187.475 160.05 187.969C158.639 188.463 157.097 187.721 156.603 186.31C156.109 184.899 156.851 183.357 158.261 182.863ZM158.003 182.124C156.189 182.76 155.229 184.755 155.864 186.569C156.499 188.383 158.495 189.343 160.309 188.708C162.122 188.072 163.083 186.077 162.447 184.263C161.812 182.449 159.816 181.489 158.003 182.124Z" fill="#DBE4EF"/>
<path d="M159.696 186.961L158.621 187.337L157.539 184.247L158.614 183.871C159.689 183.494 160.438 183.91 160.767 184.851C161.097 185.791 160.704 186.608 159.696 186.961ZM158.758 184.499L158.49 184.593L159.149 186.474L159.417 186.38C159.955 186.191 160.197 185.805 159.961 185.133C159.749 184.529 159.296 184.31 158.758 184.499Z" fill="#DBE4EF"/>
<path d="M134.444 202.067C135.855 201.572 137.397 202.314 137.891 203.725C138.385 205.136 137.643 206.678 136.232 207.172C134.822 207.666 133.28 206.924 132.785 205.513C132.291 204.103 133.033 202.561 134.444 202.067ZM134.209 201.395C132.395 202.03 131.435 204.026 132.07 205.839C132.705 207.653 134.701 208.613 136.515 207.978C138.328 207.343 139.289 205.347 138.653 203.533C138.018 201.72 136.022 200.76 134.209 201.395Z" fill="#DBE4EF"/>
<path d="M134.371 203.148L135.244 202.842L137.378 205.488L136.619 205.905L136.182 205.304L135.107 205.68L135.141 206.423L134.402 206.682L134.371 203.148ZM135.006 204.962L135.678 204.726L134.965 203.769L135.006 204.962Z" fill="#DBE4EF"/>
<path d="M143.512 198.89C144.923 198.396 146.465 199.138 146.959 200.548C147.453 201.959 146.711 203.501 145.301 203.995C143.89 204.489 142.348 203.747 141.854 202.337C141.36 200.926 142.102 199.384 143.512 198.89ZM143.277 198.218C141.463 198.853 140.503 200.849 141.138 202.663C141.774 204.476 143.769 205.437 145.583 204.801C147.397 204.166 148.357 202.17 147.722 200.357C147.086 198.543 145.091 197.583 143.277 198.218Z" fill="#DBE4EF"/>
<path d="M145.106 203.008L144.098 203.361L143.016 200.271L144.09 199.894C144.829 199.635 145.259 199.786 145.448 200.324C145.565 200.66 145.434 200.932 145.213 201.16C145.596 201.177 145.868 201.308 146.009 201.711C146.13 202.272 145.845 202.749 145.106 203.008ZM144.144 200.478L143.876 200.573L144.111 201.244L144.38 201.15C144.648 201.056 144.803 200.851 144.732 200.65C144.594 200.472 144.48 200.361 144.144 200.478ZM144.568 201.688L144.299 201.782L144.582 202.588L144.85 202.494C145.186 202.376 145.273 202.195 145.179 201.926C145.152 201.634 144.904 201.57 144.568 201.688Z" fill="#DBE4EF"/>
<path d="M152.582 195.713C153.992 195.219 155.534 195.961 156.028 197.372C156.523 198.782 155.781 200.324 154.37 200.818C152.959 201.313 151.417 200.571 150.923 199.16C150.429 197.749 151.171 196.207 152.582 195.713ZM152.346 195.041C150.533 195.677 149.572 197.672 150.208 199.486C150.843 201.3 152.839 202.26 154.652 201.625C156.466 200.989 157.426 198.994 156.791 197.18C156.156 195.366 154.16 194.406 152.346 195.041Z" fill="#DBE4EF"/>
<path d="M154.198 199.898C153.258 200.228 152.509 199.811 152.156 198.804C151.826 197.863 152.195 196.98 153.136 196.65C153.472 196.533 153.764 196.506 154.013 196.569L154.114 197.288C153.865 197.224 153.616 197.161 153.348 197.255C152.877 197.42 152.659 197.873 152.871 198.478C153.083 199.082 153.536 199.3 154.007 199.136C154.275 199.042 154.453 198.904 154.651 198.608L154.954 199.256C154.823 199.529 154.534 199.781 154.198 199.898Z" fill="#DBE4EF"/>
<path d="M163.579 198.045C161.967 198.61 160.153 197.737 159.588 196.125C159.023 194.512 159.896 192.698 161.508 192.134C163.121 191.569 164.935 192.442 165.5 194.054C166.088 195.733 165.259 197.457 163.579 198.045Z" fill="#DBE4EF"/>
<path d="M161.65 192.536C163.061 192.042 164.603 192.784 165.097 194.195C165.591 195.606 164.849 197.148 163.438 197.642C162.028 198.136 160.486 197.394 159.991 195.983C159.497 194.572 160.239 193.03 161.65 192.536ZM161.415 191.865C159.601 192.5 158.641 194.495 159.276 196.309C159.911 198.123 161.907 199.083 163.721 198.448C165.534 197.812 166.495 195.817 165.859 194.003C165.224 192.189 163.228 191.229 161.415 191.865Z" fill="#DBE4EF"/>
<path d="M163.108 196.701L162.034 197.077L160.951 193.987L162.026 193.611C163.101 193.234 163.85 193.651 164.179 194.591C164.485 195.464 164.116 196.348 163.108 196.701ZM162.171 194.239L161.902 194.333L162.561 196.214L162.829 196.12C163.367 195.932 163.609 195.545 163.373 194.873C163.138 194.202 162.708 194.051 162.171 194.239Z" fill="#DBE4EF"/>
<path d="M137.856 211.808C139.267 211.313 140.809 212.055 141.303 213.466C141.797 214.877 141.055 216.419 139.644 216.913C138.234 217.407 136.692 216.665 136.198 215.254C135.703 213.844 136.445 212.302 137.856 211.808ZM137.597 211.069C135.784 211.704 134.823 213.7 135.459 215.513C136.094 217.327 138.09 218.287 139.903 217.652C141.717 217.017 142.677 215.021 142.042 213.207C141.407 211.394 139.411 210.433 137.597 211.069Z" fill="#DBE4EF"/>
<path d="M137.759 212.822L138.633 212.516L140.766 215.162L140.007 215.579L139.57 214.978L138.496 215.354L138.529 216.097L137.791 216.356L137.759 212.822ZM138.418 214.703L139.09 214.467L138.378 213.51L138.418 214.703Z" fill="#DBE4EF"/>
<path d="M148.854 214.139C147.241 214.704 145.427 213.831 144.863 212.218C144.298 210.606 145.171 208.792 146.783 208.227C148.395 207.663 150.209 208.535 150.774 210.148C151.339 211.76 150.466 213.574 148.854 214.139Z" fill="#DBE4EF"/>
<path d="M146.924 208.631C148.335 208.137 149.877 208.879 150.371 210.289C150.865 211.7 150.124 213.242 148.713 213.736C147.302 214.23 145.76 213.488 145.266 212.078C144.772 210.667 145.514 209.125 146.924 208.631ZM146.666 207.892C144.852 208.527 143.892 210.523 144.527 212.337C145.162 214.15 147.158 215.11 148.972 214.475C150.785 213.84 151.746 211.844 151.11 210.031C150.475 208.217 148.479 207.257 146.666 207.892Z" fill="#DBE4EF"/>
<path d="M148.494 212.681L147.487 213.034L146.404 209.944L147.479 209.568C148.218 209.309 148.648 209.46 148.836 209.997C148.954 210.333 148.823 210.605 148.601 210.834C148.984 210.851 149.256 210.982 149.398 211.385C149.542 212.013 149.233 212.423 148.494 212.681ZM147.533 210.152L147.264 210.246L147.5 210.918L147.768 210.824C148.037 210.73 148.191 210.525 148.121 210.323C147.983 210.145 147.869 210.035 147.533 210.152ZM147.957 211.361L147.688 211.456L147.97 212.262L148.239 212.168C148.575 212.05 148.662 211.869 148.568 211.6C148.541 211.308 148.292 211.244 147.957 211.361Z" fill="#DBE4EF"/>
<path d="M155.994 205.454C157.405 204.96 158.947 205.702 159.441 207.113C159.935 208.523 159.193 210.065 157.782 210.559C156.371 211.054 154.829 210.312 154.335 208.901C153.841 207.49 154.583 205.948 155.994 205.454ZM155.735 204.715C153.921 205.35 152.961 207.346 153.596 209.16C154.232 210.974 156.227 211.934 158.041 211.298C159.855 210.663 160.815 208.668 160.18 206.854C159.544 205.04 157.549 204.08 155.735 204.715Z" fill="#DBE4EF"/>
<path d="M157.587 209.572C156.646 209.901 155.897 209.485 155.544 208.477C155.215 207.537 155.584 206.653 156.525 206.324C156.86 206.206 157.153 206.179 157.401 206.243L157.502 206.962C157.254 206.898 157.005 206.834 156.736 206.929C156.266 207.093 156.048 207.547 156.26 208.151C156.471 208.756 156.925 208.974 157.395 208.81C157.664 208.715 157.842 208.578 158.04 208.282L158.342 208.93C158.235 209.27 157.923 209.454 157.587 209.572Z" fill="#DBE4EF"/>
<path d="M165.062 202.277C166.473 201.783 168.015 202.525 168.509 203.936C169.003 205.347 168.261 206.889 166.851 207.383C165.44 207.877 163.898 207.135 163.404 205.724C162.91 204.313 163.651 202.771 165.062 202.277ZM164.803 201.538C162.99 202.174 162.029 204.169 162.665 205.983C163.3 207.797 165.296 208.757 167.109 208.122C168.923 207.486 169.883 205.491 169.248 203.677C168.613 201.863 166.617 200.903 164.803 201.538Z" fill="#DBE4EF"/>
<path d="M166.497 206.375L165.422 206.751L164.34 203.661L165.415 203.285C166.489 202.908 167.239 203.324 167.568 204.265C167.898 205.205 167.505 206.022 166.497 206.375ZM165.559 203.913L165.291 204.007L165.949 205.888L166.218 205.794C166.756 205.605 166.997 205.219 166.762 204.547C166.55 203.943 166.097 203.725 165.559 203.913Z" fill="#DBE4EF"/>
<path d="M141.245 221.481C142.655 220.987 144.197 221.728 144.692 223.139C145.186 224.55 144.444 226.092 143.033 226.586C141.622 227.08 140.08 226.338 139.586 224.928C139.092 223.517 139.834 221.975 141.245 221.481ZM141.009 220.809C139.196 221.444 138.235 223.44 138.871 225.254C139.506 227.067 141.502 228.027 143.315 227.392C145.129 226.757 146.089 224.761 145.454 222.948C144.819 221.134 142.823 220.174 141.009 220.809Z" fill="#DBE4EF"/>
<path d="M141.171 222.562L142.045 222.256L144.178 224.903L143.419 225.319L142.983 224.718L141.908 225.095L141.942 225.837L141.203 226.096L141.171 222.562ZM141.807 224.376L142.479 224.14L141.766 223.183L141.807 224.376Z" fill="#DBE4EF"/>
<path d="M150.313 218.304C151.724 217.81 153.266 218.552 153.76 219.962C154.254 221.373 153.512 222.915 152.101 223.409C150.691 223.903 149.149 223.161 148.655 221.751C148.16 220.34 148.902 218.798 150.313 218.304ZM150.078 217.632C148.264 218.267 147.304 220.263 147.939 222.077C148.574 223.891 150.57 224.851 152.384 224.215C154.198 223.58 155.158 221.585 154.522 219.771C153.887 217.957 151.892 216.997 150.078 217.632Z" fill="#DBE4EF"/>
<path d="M151.906 222.422L150.899 222.775L149.816 219.685L150.891 219.308C151.63 219.049 152.06 219.2 152.248 219.738C152.366 220.074 152.235 220.346 152.013 220.574C152.396 220.591 152.669 220.722 152.81 221.125C152.931 221.686 152.645 222.163 151.906 222.422ZM150.945 219.893L150.676 219.987L150.912 220.658L151.18 220.564C151.449 220.47 151.604 220.265 151.533 220.064C151.395 219.886 151.281 219.775 150.945 219.893ZM151.369 221.102L151.1 221.196L151.382 222.002L151.651 221.908C151.987 221.79 152.074 221.609 151.98 221.34C151.953 221.048 151.705 220.984 151.369 221.102Z" fill="#DBE4EF"/>
<path d="M159.382 215.127C160.793 214.633 162.335 215.375 162.829 216.786C163.323 218.196 162.581 219.738 161.171 220.233C159.76 220.727 158.218 219.985 157.724 218.574C157.23 217.163 157.972 215.621 159.382 215.127ZM159.147 214.455C157.333 215.091 156.373 217.086 157.008 218.9C157.644 220.714 159.639 221.674 161.453 221.039C163.267 220.403 164.227 218.408 163.592 216.594C162.956 214.78 160.961 213.82 159.147 214.455Z" fill="#DBE4EF"/>
<path d="M160.999 219.312C160.058 219.642 159.309 219.225 158.956 218.218C158.627 217.277 158.996 216.394 159.937 216.064C160.273 215.947 160.565 215.92 160.813 215.983L160.914 216.702C160.666 216.638 160.417 216.575 160.148 216.669C159.678 216.834 159.46 217.287 159.672 217.892C159.884 218.496 160.337 218.714 160.807 218.55C161.076 218.456 161.254 218.318 161.452 218.022L161.755 218.67C161.624 218.943 161.335 219.195 160.999 219.312Z" fill="#DBE4EF"/>
<path d="M168.451 211.95C169.861 211.456 171.403 212.198 171.898 213.609C172.392 215.02 171.65 216.562 170.239 217.056C168.828 217.55 167.286 216.808 166.792 215.397C166.298 213.987 167.04 212.445 168.451 211.95ZM168.215 211.279C166.402 211.914 165.442 213.91 166.077 215.723C166.712 217.537 168.708 218.497 170.521 217.862C172.335 217.227 173.295 215.231 172.66 213.417C172.025 211.603 170.029 210.643 168.215 211.279Z" fill="#DBE4EF"/>
<path d="M169.909 216.115L168.834 216.491L167.752 213.401L168.827 213.025C169.902 212.648 170.651 213.065 170.98 214.005C171.286 214.878 170.917 215.762 169.909 216.115ZM168.971 213.653L168.703 213.747L169.362 215.628L169.63 215.534C170.168 215.346 170.409 214.959 170.174 214.288C169.939 213.616 169.509 213.465 168.971 213.653Z" fill="#DBE4EF"/>
<path d="M244.374 199.61L213.339 210.481C211.793 211.022 210.161 210.237 209.62 208.692L200.395 182.359C199.854 180.814 200.64 179.181 202.185 178.64L233.22 167.768C234.765 167.227 236.398 168.013 236.939 169.558L246.163 195.891C246.704 197.436 245.919 199.069 244.374 199.61Z" fill="#EAF0F8"/>
<path d="M213.073 184.103L200.175 188.621C199.638 188.809 199.003 188.503 198.815 187.966L197.85 185.212C197.662 184.674 197.967 184.039 198.505 183.851L211.403 179.333C211.94 179.145 212.575 179.45 212.763 179.988L213.728 182.742C213.916 183.28 213.611 183.914 213.073 184.103Z" fill="#DBE4EF"/>
<path d="M213.239 190.606L199.938 195.265C199.401 195.453 198.766 195.148 198.577 194.61L197.613 191.856C197.424 191.319 197.73 190.684 198.267 190.496L211.568 185.837C212.106 185.648 212.741 185.954 212.929 186.491L213.894 189.245C214.082 189.783 213.776 190.418 213.239 190.606Z" fill="#DBE4EF"/>
<path d="M218.151 195.371L205.522 199.794C204.985 199.983 204.35 199.677 204.161 199.14L203.197 196.386C203.008 195.848 203.314 195.213 203.851 195.025L216.48 190.601C217.018 190.413 217.653 190.718 217.841 191.256L218.806 194.01C218.994 194.547 218.689 195.182 218.151 195.371Z" fill="#DBE4EF"/>
<path d="M127.701 123.456L83.5771 141.171L101.292 185.295L145.416 167.58L127.701 123.456Z" fill="#FFDC6E"/>
<path d="M66.1386 260.913C65.0471 261.672 64.7989 263.116 65.5348 264.141L74.8834 277.911C75.6428 279.002 77.0873 279.25 78.1116 278.515L108.123 258.047C102.717 253.379 97.7075 248.12 93.2754 242.357L66.1386 260.913Z" fill="#FFCD00"/>
<path d="M141.614 232.438L132.265 218.669C131.506 217.577 130.061 217.329 129.037 218.065L93.3662 242.4C97.7983 248.164 102.808 253.423 108.214 258.09L141.033 235.734C142.034 234.931 142.282 233.486 141.614 232.438Z" fill="#FFCD00"/>
<path d="M101.284 244.981L97.5537 239.5" stroke="#E8B156" stroke-width="2" stroke-miterlimit="10" stroke-linejoin="round"/>
<path d="M84.6188 256.4L80.8652 250.852" stroke="#E8B156" stroke-width="2" stroke-miterlimit="10" stroke-linejoin="round"/>
<path d="M75.4802 260.883L72.5332 256.561" stroke="#E8B156" stroke-width="2" stroke-miterlimit="10" stroke-linejoin="round"/>
<path d="M92.1687 249.532L89.2217 245.21" stroke="#E8B156" stroke-width="2" stroke-miterlimit="10" stroke-linejoin="round"/>
<path d="M108.834 238.113L105.887 233.791" stroke="#E8B156" stroke-width="2" stroke-miterlimit="10" stroke-linejoin="round"/>
<path d="M125.522 226.762L122.575 222.439" stroke="#E8B156" stroke-width="2" stroke-miterlimit="10" stroke-linejoin="round"/>
<path d="M117.972 233.631L114.242 228.149" stroke="#E8B156" stroke-width="2" stroke-miterlimit="10" stroke-linejoin="round"/>
<path d="M118.186 153.131L110.92 156.048L115.959 168.598L123.225 165.681L118.186 153.131Z" fill="#FF2C77"/>
<path d="M119.737 157.065L112.442 159.922" stroke="#DD316F" stroke-width="2" stroke-miterlimit="10" stroke-linecap="round" stroke-linejoin="round"/>
<path d="M120.772 160.021L113.5 162.945" stroke="#DD316F" stroke-width="2" stroke-miterlimit="10" stroke-linecap="round" stroke-linejoin="round"/>
<path d="M121.832 163.043L114.56 165.968" stroke="#DD316F" stroke-width="2" stroke-miterlimit="10" stroke-linecap="round" stroke-linejoin="round"/>
<path d="M126.125 168.63L115.877 172.747C115.474 172.888 115.064 172.579 115.148 172.173L115.927 168.582L123.198 165.658L126.246 167.682C126.632 167.924 126.528 168.488 126.125 168.63Z" fill="#B9C3C5"/>
<path d="M120.52 133.034L95.3255 143.141L92.2529 146.857L97.2107 159.073L102.014 159.653L127.141 149.569L130.19 145.786L125.323 133.614L120.52 133.034Z" fill="#B9C3C5"/>
<path d="M102.193 159.515L95.5947 143.047" stroke="#ADB2C6" stroke-width="2" stroke-miterlimit="10" stroke-linejoin="round"/>
<path d="M120.52 133.034L127.141 149.569" stroke="#ADB2C6" stroke-width="2" stroke-miterlimit="10" stroke-linejoin="round"/>
<path d="M289.249 141.053L257.801 167.756L254.245 170.737C254.02 170.74 253.771 170.676 253.613 170.656C251.964 170.253 250.905 168.739 251.083 167.093L254.75 163.998L286.131 137.319L289.249 141.053Z" fill="#D20053"/>
<path d="M238.784 212.504C228.412 203.995 223.088 191.379 224.472 178.752L225.635 167.862L226.962 167.774C233.975 167.127 237.754 165.427 239.361 160.112L239.747 158.846L267.504 161.868L267.592 163.195C268.013 168.704 271.292 171.176 278.078 173.324L279.345 173.71L278.182 184.6C276.798 197.227 268.863 208.378 256.957 214.434L247.324 219.015L238.784 212.504Z" fill="#AEC7FF"/>
<path d="M243.531 164.911L262.494 166.942C264.111 172.635 268.479 175.63 273.212 177.517L272.455 183.966C271.288 194.632 264.499 204.099 254.359 209.386L247.967 212.454L242.363 208.082C233.54 200.765 228.966 190.074 230.132 179.409L230.823 172.983C232.462 172.71 233.919 172.35 235.196 171.903C239.025 170.562 241.759 168.247 243.531 164.911ZM239.724 158.778L239.338 160.045C238.287 163.505 236.38 165.38 233.223 166.485C231.476 167.097 229.41 167.444 226.915 167.639L225.588 167.727L224.425 178.617C223.041 191.245 228.432 203.837 238.737 212.369L247.143 218.928L256.775 214.347C268.726 208.2 276.66 197.049 278.001 184.512L279.164 173.622L277.897 173.236C271.135 171.155 267.856 168.684 267.411 163.108L267.323 161.781L239.724 158.778Z" fill="#7196FF"/>
<path d="M255.201 167.007C255.675 168.576 254.889 170.208 253.506 170.995C253.328 171.132 253.126 171.203 252.901 171.206C251.265 171.704 249.609 170.851 248.866 169.377C248.796 169.175 248.749 169.041 248.678 168.839C248.18 167.204 249.033 165.547 250.441 164.828C250.642 164.758 250.776 164.71 250.978 164.64C252.614 164.142 254.361 165.039 255.036 166.537C255.083 166.671 255.154 166.873 255.201 167.007Z" fill="#DCE3EF"/>
<path d="M268.718 127.655L255.037 166.537L253.482 170.928C253.304 171.065 253.103 171.136 252.878 171.139C251.242 171.637 249.586 170.784 248.843 169.31L250.417 164.761L264.032 125.903L268.718 127.655Z" fill="#FF2C77"/>
<g opacity="0.9">
<path d="M65.6794 242.541L63.3991 241.151L66.0136 236.838L68.2939 238.228C68.9869 238.671 69.1986 239.549 68.8066 240.245L67.6966 242.028C67.3046 242.724 66.3724 242.984 65.6794 242.541Z" fill="#FF2C77"/>
<path d="M65.279 236.366L22.9512 210.645L20.3287 214.96L62.6566 240.681L65.279 236.366Z" fill="#FDA220"/>
<path d="M66.0235 236.817L64.1055 235.651L61.483 239.967L63.4011 241.133L66.0235 236.817Z" fill="#C9CDE0"/>
</g>
<path d="M22.9327 210.644L20.3182 214.957L16.6537 210.588L15.642 209.363C15.4968 209.202 15.6597 209.006 15.8635 209.016L17.4302 209.349L22.9327 210.644Z" fill="#FAF7F1"/>
<path d="M17.3259 209.395L16.603 210.585L15.5913 209.36C15.446 209.199 15.609 209.003 15.8127 209.013L17.3259 209.395Z" fill="#E8B156"/>
<path d="M260.926 180.765C259.29 179.754 257.523 179.016 255.668 178.459C255.359 178.868 255.074 179.346 254.789 179.823C252.8 179.313 250.747 179.051 248.745 179.149C248.581 178.679 248.392 178.141 248.228 177.671C246.316 177.813 244.408 178.179 242.571 178.747C238.568 183.468 237.045 188.376 236.985 193.374C238.857 195.057 241.017 196.487 243.328 197.488C243.926 196.826 244.5 196.097 244.984 195.324C244.235 194.908 243.486 194.491 242.847 193.961C243.025 193.823 243.227 193.752 243.472 193.591C247.493 196.029 252.431 196.562 256.889 195.076C257.026 195.254 257.231 195.408 257.436 195.563C256.654 195.912 255.847 196.195 255.085 196.386C255.391 197.26 255.831 198.086 256.248 198.845C258.717 198.357 261.135 197.51 263.321 196.216C264.361 190.573 263.406 185.477 260.926 180.765ZM245.981 191.279C244.65 191.142 243.73 189.805 243.911 188.384C244.092 186.963 245.2 185.821 246.621 186.002C247.951 186.139 248.872 187.476 248.691 188.897C248.51 190.318 247.311 191.417 245.981 191.279ZM254.775 192.271C253.445 192.134 252.524 190.797 252.705 189.376C252.862 187.888 253.994 186.813 255.415 186.994C256.836 187.175 257.666 188.468 257.485 189.889C257.304 191.31 256.105 192.409 254.775 192.271Z" fill="#275CE6"/>
</g>
<defs>
<clipPath id="clip0_14123_97697">
<rect width="461.447" height="220.652" fill="white" transform="translate(-90 152.551) rotate(-19.3047)"/>
</clipPath>
</defs>
</svg>
