<svg width="327" height="240" viewBox="0 0 327 240" fill="none" xmlns="http://www.w3.org/2000/svg">
<g clip-path="url(#clip0_14123_97123)">
<path opacity="0.4" d="M205.652 267.037C265.998 253.196 303.699 193.056 289.858 132.71C276.018 72.364 215.878 34.6638 155.532 48.5042C95.1857 62.3446 57.4855 122.485 71.3259 182.831C85.1663 243.177 145.306 280.877 205.652 267.037Z" fill="#D1E4FF"/>
<path d="M263.629 86.9325L289.74 200.781C290.241 202.966 288.899 205.203 286.643 205.721L106.037 247.143C103.781 247.66 101.598 246.231 101.097 244.046L74.986 130.198C74.4687 127.942 75.8268 125.775 78.0826 125.258L258.689 83.8359C260.945 83.3186 263.111 84.6767 263.629 86.9325Z" fill="#275CE6"/>
<path d="M289.223 198.524L289.74 200.78C290.241 202.965 288.899 205.202 286.644 205.719L106.037 247.141C103.781 247.659 101.599 246.23 101.097 244.045L100.58 241.789C101.097 244.045 103.264 245.403 105.52 244.886L286.126 203.463C288.398 203.017 289.74 200.78 289.223 198.524Z" fill="#194AD6"/>
<path opacity="0.1" d="M195.839 224.246L192.719 210.641" stroke="#0A2B9B" stroke-width="2" stroke-miterlimit="10"/>
<path d="M283.307 199.585L203.085 217.984C202.38 218.146 201.648 217.869 201.307 217.353C199.652 214.987 196.677 213.666 193.646 214.361C190.615 215.057 188.497 217.471 188.054 220.393C187.918 221.092 187.364 221.59 186.73 221.735L106.366 240.167L105.801 237.7L104.248 230.932L98.6543 206.541L275.595 165.96L281.189 190.351L283.307 199.585Z" fill="#C9DBF7"/>
<path d="M201.735 92.074L229.58 85.6876C232.208 82.2651 232.382 77.8473 231.587 72.7613C216.55 71.9062 204.097 80.6985 201.735 92.074Z" fill="#60CFAC"/>
<path d="M201.735 92.074L229.58 85.6876C232.208 82.2651 232.382 77.8473 231.587 72.7613C216.55 71.9062 204.097 80.6985 201.735 92.074Z" fill="#60CFAC"/>
<path d="M211.111 89.9231C213.053 84.8029 223.853 75.2766 231.517 72.777" stroke="#4BB494" stroke-width="2" stroke-miterlimit="10" stroke-linecap="round" stroke-linejoin="round"/>
<path d="M269.492 92.1178L247.004 97.2754L248.605 104.254L271.092 99.0968L269.492 92.1178Z" fill="#FF2C77"/>
<path d="M270.788 103.915L248.301 109.072L249.901 116.051L272.389 110.894L270.788 103.915Z" fill="#FFDC6E"/>
<path d="M110.201 194.764L87.7129 199.922L89.3135 206.901L111.801 201.743L110.201 194.764Z" fill="#FF2C77"/>
<path d="M106.054 173.456L83.5664 178.613L85.167 185.592L107.655 180.435L106.054 173.456Z" fill="#60CFAC"/>
<path d="M286.341 171.731L263.854 176.889L265.454 183.868L287.942 178.71L286.341 171.731Z" fill="#60CFAC"/>
<path d="M101.417 162.944L78.9297 168.102L80.5303 175.08L103.018 169.923L101.417 162.944Z" fill="#AEC7FF"/>
<path d="M282.046 194.086L193.575 214.377L105.105 234.668L78.8805 120.326C107.894 111.594 137.432 104.82 167.351 100.035C196.365 91.3033 225.902 84.529 255.821 79.7446L282.046 194.086Z" fill="#FAF7F1"/>
<path opacity="0.5" d="M193.575 214.377L187.124 186.25L167.334 99.9648" stroke="#BDCDDD" stroke-width="2" stroke-miterlimit="10"/>
<g opacity="0.9">
<path d="M323.356 155.82L303.422 144.29C300.941 142.855 300.143 139.699 301.507 137.234L304.903 131.336C306.338 128.855 309.494 128.057 311.958 129.421L331.892 140.951C332.482 141.261 332.66 142.036 332.35 142.626L325.031 155.361C324.721 155.952 323.946 156.13 323.356 155.82Z" fill="#FAF7F1"/>
<path d="M329.092 139.347L314.498 130.924L305.93 145.769L320.525 154.192L329.092 139.347Z" fill="#7196FF"/>
</g>
<g opacity="0.9">
<path d="M286.182 84.6212L289.808 81.341L292.882 84.717L290.06 87.2936L286.182 84.6212Z" fill="#FFA245"/>
<path d="M294.989 65.7571L308.986 81.1715L293.087 84.9664L289.617 81.1617L294.989 65.7571Z" fill="#FFDFAF"/>
<path d="M337.416 27.3336L295.006 65.7324L308.938 81.12L351.348 42.7212L337.416 27.3336Z" fill="#FFB05A"/>
</g>
<g opacity="0.9">
<path opacity="0.9" d="M26.7279 130.432L15.4305 133.023C11.5715 133.908 7.72126 131.494 6.8362 127.635L5.18151 120.421C4.29644 116.562 6.71007 112.711 10.5691 111.826L21.8665 109.235C25.7255 108.35 29.5757 110.764 30.4608 114.623L32.1027 121.782C32.9877 125.641 30.5869 129.547 26.7279 130.432ZM11.7235 116.86C10.6609 117.104 9.97128 118.204 10.215 119.266L11.8569 126.425C12.1006 127.488 13.2006 128.177 14.2633 127.933L25.5607 125.342C26.6233 125.099 27.3129 123.999 27.0692 122.936L25.4273 115.777C25.1836 114.715 24.0835 114.025 23.0209 114.269L11.7235 116.86Z" fill="#73A1FF"/>
<path d="M39.4448 107.851C38.219 107.897 36.9629 108.067 35.7325 108.35C34.5021 108.632 33.2974 109.026 32.1742 109.519L15.8992 113.252L19.5934 129.359C21.8895 139.37 32.6419 145.44 43.6596 142.913C54.6774 140.386 61.71 130.237 59.4139 120.226L55.7197 104.119L39.4448 107.851Z" fill="#5886F9"/>
<path d="M39.9663 126.808C50.9625 124.286 58.0159 114.128 55.7206 104.121C53.4253 94.1128 42.6505 88.0444 31.6544 90.5664C20.6583 93.0884 13.6048 103.246 15.9001 113.253C18.1954 123.261 28.9702 129.329 39.9663 126.808Z" fill="#73A1FF"/>
<path d="M52.5882 104.837C52.9089 106.236 52.993 107.629 52.8966 109.005C52.8222 109.964 52.679 110.88 52.424 111.822C50.9195 117.583 45.9671 122.427 39.2558 123.967C32.5444 125.506 26.0317 123.291 22.1112 118.774C21.4713 118.038 20.9434 117.276 20.4585 116.445C19.772 115.248 19.2404 113.957 18.9198 112.559C16.9829 104.114 22.9123 95.5722 32.1963 93.4429C41.5362 91.3008 50.6513 96.3923 52.5882 104.837Z" fill="#356DF8"/>
<path d="M52.4798 111.81C50.9754 117.571 46.023 122.415 39.3116 123.954C32.6003 125.494 26.0876 123.279 22.167 118.762C23.6715 113.001 28.6111 108.1 35.3224 106.561C41.9778 105.035 48.5593 107.293 52.4798 111.81Z" fill="#2258E2"/>
<path d="M47.2109 118.611L49.3531 127.951" stroke="#C9CDE0" stroke-width="2" stroke-miterlimit="10" stroke-linecap="round"/>
<path d="M53.567 128.866L50.9379 133.06C50.7655 133.335 50.4299 133.412 50.2108 133.227L46.0168 130.598C45.7418 130.426 45.6648 130.09 45.85 129.871L48.4792 125.677C48.6516 125.402 48.9872 125.325 49.2062 125.51L53.4003 128.139C53.6753 128.312 53.7523 128.647 53.567 128.866Z" fill="#FFCA80"/>
</g>
<path d="M250.174 95.8808L260.359 140.292C260.618 141.42 259.912 142.547 258.784 142.805L211.694 153.606L200.57 105.105L247.66 94.3053C248.718 94.0628 249.915 94.7529 250.174 95.8808Z" fill="#EAF0F8"/>
<path d="M200.569 105.105L211.709 153.676L193.663 157.815C192.535 158.073 191.408 157.367 191.149 156.239L180.964 111.828C180.705 110.7 181.411 109.573 182.539 109.315L200.586 105.176L200.569 105.105Z" fill="#DBE4EF"/>
<path d="M183.506 111.913C183.857 111.833 184.076 111.483 183.996 111.133C183.915 110.782 183.566 110.563 183.215 110.643C182.864 110.724 182.645 111.073 182.726 111.424C182.806 111.775 183.156 111.994 183.506 111.913Z" fill="#DBE4EF"/>
<path d="M185.551 111.445C185.902 111.364 186.121 111.015 186.04 110.664C185.96 110.313 185.611 110.094 185.26 110.175C184.909 110.255 184.69 110.605 184.771 110.955C184.851 111.306 185.2 111.525 185.551 111.445Z" fill="#DBE4EF"/>
<path d="M187.524 110.991C187.874 110.911 188.094 110.562 188.013 110.211C187.933 109.86 187.583 109.641 187.233 109.722C186.882 109.802 186.663 110.151 186.743 110.502C186.824 110.853 187.173 111.072 187.524 110.991Z" fill="#DBE4EF"/>
<path d="M210.59 115.793C212.264 115.409 213.31 113.741 212.926 112.067C212.542 110.392 210.873 109.347 209.199 109.731C207.525 110.115 206.479 111.783 206.863 113.457C207.247 115.131 208.916 116.177 210.59 115.793Z" fill="#DBE4EF"/>
<path d="M244.242 120.17L219.287 125.894C218.934 125.975 218.588 125.757 218.507 125.405L215.661 112.998C215.58 112.645 215.798 112.299 216.15 112.218L241.105 106.494C241.458 106.413 241.804 106.631 241.885 106.983L244.731 119.39C244.811 119.743 244.594 120.089 244.242 120.17Z" fill="#DBE4EF"/>
<path d="M224.78 108.755L215.757 110.824C215.475 110.889 215.144 110.742 215.063 110.39L214.756 109.05C214.692 108.768 214.838 108.438 215.191 108.357L224.214 106.287C224.496 106.223 224.827 106.37 224.907 106.722L225.215 108.061C225.296 108.414 225.133 108.674 224.78 108.755Z" fill="#DBE4EF"/>
<path d="M215.553 137.436C217.227 137.052 218.273 135.383 217.889 133.709C217.505 132.035 215.836 130.989 214.162 131.373C212.488 131.757 211.442 133.426 211.826 135.1C212.21 136.774 213.878 137.82 215.553 137.436Z" fill="#DBE4EF"/>
<path d="M247.444 134.127L222.489 139.85C222.137 139.931 221.79 139.714 221.709 139.361L220.626 134.638C220.545 134.286 220.762 133.939 221.115 133.858L246.07 128.135C246.422 128.054 246.769 128.271 246.85 128.624L247.933 133.347C248.014 133.699 247.797 134.046 247.444 134.127Z" fill="#DBE4EF"/>
<path d="M229.745 130.395L220.722 132.465C220.44 132.53 220.109 132.383 220.028 132.03L219.721 130.691C219.656 130.409 219.803 130.078 220.156 129.998L229.179 127.928C229.461 127.863 229.791 128.01 229.872 128.363L230.18 129.702C230.244 129.984 230.097 130.315 229.745 130.395Z" fill="#DBE4EF"/>
<path d="M163.719 152.142C163.86 152.11 163.947 152.164 163.979 152.305L175.847 204.048C175.879 204.189 175.825 204.276 175.684 204.308L117.737 217.598C117.596 217.631 117.51 217.576 117.477 217.435L105.61 165.692C105.578 165.551 105.632 165.465 105.773 165.432L163.719 152.142ZM163.477 151.085L105.531 164.375C104.826 164.537 104.391 165.23 104.553 165.935L116.42 217.678C116.582 218.383 117.275 218.817 117.98 218.656L175.926 205.366C176.631 205.204 177.066 204.511 176.904 203.806L165.037 152.063C164.875 151.358 164.182 150.923 163.477 151.085Z" fill="#DBE4EF"/>
<path d="M128.72 170.038C130.2 169.698 131.674 170.622 132.013 172.102C132.353 173.583 131.429 175.056 129.949 175.395C128.468 175.735 126.995 174.811 126.656 173.331C126.316 171.851 127.24 170.377 128.72 170.038ZM128.542 169.262C126.639 169.699 125.444 171.606 125.88 173.509C126.317 175.412 128.223 176.607 130.127 176.171C132.03 175.734 133.225 173.828 132.789 171.924C132.352 170.021 130.445 168.826 128.542 169.262Z" fill="#DBE4EF"/>
<path d="M128.507 171.052L129.423 170.842L131.279 173.755L130.465 174.09L130.092 173.434L128.964 173.692L128.914 174.446L128.139 174.624L128.507 171.052ZM128.96 173.026L129.664 172.864L129.053 171.817L128.96 173.026Z" fill="#DBE4EF"/>
<path d="M138.238 167.854C139.718 167.515 141.191 168.438 141.531 169.919C141.87 171.399 140.947 172.872 139.466 173.212C137.986 173.551 136.513 172.628 136.173 171.147C135.834 169.667 136.757 168.194 138.238 167.854ZM138.06 167.079C136.156 167.515 134.961 169.422 135.398 171.325C135.834 173.229 137.741 174.424 139.644 173.987C141.547 173.551 142.743 171.644 142.306 169.741C141.87 167.838 139.963 166.642 138.06 167.079Z" fill="#DBE4EF"/>
<path d="M139.366 172.121L138.308 172.364L137.564 169.121L138.692 168.862C139.468 168.685 139.885 168.886 140.014 169.45C140.095 169.802 139.932 170.062 139.683 170.268C140.067 170.328 140.327 170.491 140.424 170.914C140.499 171.564 140.141 171.943 139.366 172.121ZM138.681 169.459L138.399 169.523L138.56 170.228L138.842 170.164C139.124 170.099 139.304 169.909 139.255 169.698C139.136 169.503 139.033 169.378 138.681 169.459ZM138.972 170.728L138.69 170.792L138.884 171.638L139.166 171.574C139.518 171.493 139.627 171.319 139.562 171.037C139.568 170.739 139.324 170.647 138.972 170.728Z" fill="#DBE4EF"/>
<path d="M149.079 171.453C147.387 171.841 145.654 170.755 145.266 169.063C144.878 167.371 145.965 165.638 147.656 165.25C149.348 164.862 151.082 165.948 151.47 167.64C151.858 169.332 150.771 171.065 149.079 171.453Z" fill="#DBE4EF"/>
<path d="M147.753 165.673C149.234 165.333 150.707 166.257 151.046 167.737C151.386 169.217 150.462 170.691 148.982 171.03C147.502 171.37 146.028 170.446 145.689 168.966C145.349 167.485 146.273 166.012 147.753 165.673ZM147.575 164.897C145.672 165.334 144.477 167.24 144.913 169.144C145.35 171.047 147.256 172.242 149.16 171.806C151.063 171.369 152.258 169.463 151.822 167.559C151.385 165.656 149.479 164.461 147.575 164.897Z" fill="#DBE4EF"/>
<path d="M148.897 170.01C147.91 170.237 147.201 169.732 146.958 168.674C146.732 167.687 147.205 166.837 148.192 166.611C148.544 166.53 148.842 166.536 149.086 166.628L149.107 167.365C148.863 167.273 148.619 167.18 148.337 167.245C147.844 167.358 147.572 167.791 147.718 168.426C147.863 169.06 148.296 169.332 148.79 169.219C149.072 169.154 149.267 169.035 149.501 168.759L149.733 169.448C149.586 169.778 149.25 169.93 148.897 170.01Z" fill="#DBE4EF"/>
<path d="M157.271 163.489C158.751 163.15 160.224 164.073 160.564 165.553C160.903 167.034 159.98 168.507 158.499 168.847C157.019 169.186 155.546 168.263 155.206 166.782C154.867 165.302 155.79 163.829 157.271 163.489ZM157.093 162.714C155.19 163.15 153.994 165.057 154.431 166.96C154.867 168.863 156.774 170.059 158.677 169.622C160.581 169.186 161.776 167.279 161.339 165.376C160.903 163.472 158.996 162.277 157.093 162.714Z" fill="#DBE4EF"/>
<path d="M158.256 167.789L157.128 168.047L156.385 164.805L157.513 164.546C158.641 164.287 159.35 164.792 159.576 165.779C159.803 166.766 159.314 167.546 158.256 167.789ZM157.588 165.197L157.306 165.261L157.758 167.235L158.04 167.17C158.604 167.041 158.892 166.678 158.73 165.973C158.585 165.339 158.152 165.067 157.588 165.197Z" fill="#DBE4EF"/>
<path d="M131.048 180.19C132.528 179.851 134.001 180.774 134.341 182.254C134.68 183.735 133.757 185.208 132.276 185.548C130.796 185.887 129.323 184.964 128.983 183.483C128.644 182.003 129.567 180.53 131.048 180.19ZM130.886 179.485C128.983 179.922 127.787 181.828 128.224 183.732C128.66 185.635 130.567 186.83 132.47 186.394C134.374 185.957 135.569 184.05 135.132 182.147C134.696 180.244 132.789 179.049 130.886 179.485Z" fill="#DBE4EF"/>
<path d="M130.851 181.275L131.767 181.064L133.622 183.978L132.809 184.313L132.436 183.656L131.308 183.915L131.258 184.669L130.483 184.846L130.851 181.275ZM131.287 183.178L131.992 183.016L131.381 181.969L131.287 183.178Z" fill="#DBE4EF"/>
<path d="M140.565 178.006C142.045 177.667 143.519 178.59 143.858 180.071C144.198 181.551 143.274 183.025 141.794 183.364C140.313 183.704 138.84 182.78 138.501 181.3C138.161 179.819 139.085 178.346 140.565 178.006ZM140.403 177.302C138.5 177.738 137.305 179.645 137.741 181.548C138.178 183.451 140.085 184.647 141.988 184.21C143.891 183.773 145.086 181.867 144.65 179.964C144.213 178.06 142.307 176.865 140.403 177.302Z" fill="#DBE4EF"/>
<path d="M141.709 182.344L140.652 182.586L139.908 179.344L141.036 179.085C141.812 178.907 142.229 179.108 142.358 179.672C142.439 180.025 142.276 180.285 142.026 180.49C142.411 180.551 142.671 180.714 142.768 181.137C142.827 181.717 142.485 182.166 141.709 182.344ZM141.024 179.681L140.742 179.746L140.904 180.451L141.186 180.386C141.468 180.322 141.647 180.132 141.599 179.921C141.48 179.725 141.377 179.601 141.024 179.681ZM141.316 180.95L141.034 181.015L141.228 181.861L141.51 181.796C141.862 181.715 141.971 181.542 141.906 181.26C141.912 180.962 141.668 180.869 141.316 180.95Z" fill="#DBE4EF"/>
<path d="M150.081 175.825C151.561 175.485 153.034 176.409 153.374 177.889C153.713 179.37 152.79 180.843 151.31 181.182C149.829 181.522 148.356 180.598 148.016 179.118C147.677 177.638 148.6 176.164 150.081 175.825ZM149.919 175.12C148.016 175.556 146.821 177.463 147.257 179.366C147.694 181.27 149.6 182.465 151.504 182.028C153.407 181.592 154.602 179.685 154.166 177.782C153.729 175.879 151.822 174.683 149.919 175.12Z" fill="#DBE4EF"/>
<path d="M151.241 180.233C150.254 180.459 149.545 179.954 149.302 178.897C149.076 177.91 149.549 177.06 150.535 176.833C150.888 176.752 151.186 176.758 151.43 176.851L151.451 177.588C151.207 177.495 150.963 177.403 150.681 177.468C150.187 177.581 149.916 178.014 150.061 178.649C150.207 179.283 150.64 179.555 151.134 179.442C151.416 179.377 151.611 179.258 151.844 178.982L152.077 179.67C151.914 179.93 151.593 180.152 151.241 180.233Z" fill="#DBE4EF"/>
<path d="M160.925 179.422C159.233 179.81 157.5 178.723 157.112 177.031C156.724 175.34 157.81 173.606 159.502 173.218C161.194 172.83 162.927 173.917 163.315 175.609C163.719 177.371 162.687 179.018 160.925 179.422Z" fill="#DBE4EF"/>
<path d="M159.598 173.641C161.079 173.302 162.552 174.225 162.891 175.706C163.231 177.186 162.307 178.659 160.827 178.999C159.347 179.338 157.873 178.415 157.534 176.934C157.194 175.454 158.118 173.981 159.598 173.641ZM159.437 172.936C157.533 173.373 156.338 175.279 156.775 177.183C157.211 179.086 159.118 180.281 161.021 179.845C162.924 179.408 164.12 177.502 163.683 175.598C163.247 173.695 161.34 172.5 159.437 172.936Z" fill="#DBE4EF"/>
<path d="M160.6 178.011L159.472 178.27L158.729 175.027L159.856 174.769C160.984 174.51 161.694 175.015 161.92 176.002C162.13 176.918 161.658 177.769 160.6 178.011ZM159.931 175.419L159.649 175.484L160.102 177.458L160.384 177.393C160.948 177.264 161.236 176.901 161.074 176.196C160.913 175.491 160.495 175.29 159.931 175.419Z" fill="#DBE4EF"/>
<path d="M133.392 190.411C134.872 190.071 136.345 190.995 136.685 192.475C137.025 193.956 136.101 195.429 134.621 195.769C133.14 196.108 131.667 195.184 131.327 193.704C130.988 192.224 131.911 190.75 133.392 190.411ZM133.214 189.636C131.311 190.072 130.115 191.979 130.552 193.882C130.989 195.785 132.895 196.98 134.798 196.544C136.702 196.107 137.897 194.201 137.46 192.297C137.024 190.394 135.117 189.199 133.214 189.636Z" fill="#DBE4EF"/>
<path d="M133.179 191.425L134.095 191.215L135.951 194.128L135.137 194.463L134.764 193.807L133.636 194.066L133.586 194.819L132.811 194.997L133.179 191.425ZM133.631 193.399L134.336 193.237L133.725 192.19L133.631 193.399Z" fill="#DBE4EF"/>
<path d="M144.235 194.008C142.544 194.396 140.81 193.309 140.422 191.617C140.034 189.926 141.121 188.192 142.813 187.804C144.505 187.416 146.238 188.503 146.626 190.195C147.014 191.886 145.927 193.62 144.235 194.008Z" fill="#DBE4EF"/>
<path d="M142.909 188.227C144.39 187.888 145.863 188.811 146.203 190.292C146.542 191.772 145.619 193.245 144.138 193.585C142.658 193.924 141.185 193.001 140.845 191.521C140.505 190.04 141.429 188.567 142.909 188.227ZM142.732 187.452C140.828 187.888 139.633 189.795 140.07 191.698C140.506 193.602 142.413 194.797 144.316 194.36C146.219 193.924 147.415 192.017 146.978 190.114C146.541 188.211 144.635 187.015 142.732 187.452Z" fill="#DBE4EF"/>
<path d="M144.037 192.494L142.98 192.737L142.236 189.494L143.364 189.235C144.14 189.058 144.557 189.259 144.686 189.823C144.767 190.175 144.604 190.435 144.354 190.641C144.739 190.701 144.999 190.864 145.096 191.287C145.171 191.938 144.813 192.317 144.037 192.494ZM143.353 189.832L143.071 189.896L143.232 190.601L143.514 190.537C143.796 190.472 143.975 190.283 143.927 190.071C143.808 189.876 143.705 189.751 143.353 189.832ZM143.644 191.101L143.362 191.165L143.556 192.011L143.838 191.947C144.19 191.866 144.299 191.692 144.234 191.41C144.24 191.112 143.996 191.02 143.644 191.101Z" fill="#DBE4EF"/>
<path d="M152.425 186.046C153.905 185.706 155.379 186.63 155.718 188.11C156.058 189.59 155.134 191.064 153.654 191.403C152.173 191.743 150.7 190.819 150.361 189.339C150.021 187.858 150.945 186.385 152.425 186.046ZM152.247 185.27C150.344 185.707 149.149 187.613 149.585 189.517C150.022 191.42 151.928 192.615 153.832 192.179C155.735 191.742 156.93 189.836 156.494 187.932C156.057 186.029 154.151 184.834 152.247 185.27Z" fill="#DBE4EF"/>
<path d="M153.569 190.384C152.582 190.61 151.873 190.105 151.63 189.047C151.404 188.06 151.877 187.21 152.864 186.984C153.216 186.903 153.514 186.909 153.758 187.001L153.779 187.738C153.535 187.646 153.291 187.553 153.009 187.618C152.516 187.731 152.244 188.165 152.389 188.799C152.535 189.433 152.968 189.705 153.462 189.592C153.744 189.527 153.939 189.408 154.173 189.132L154.405 189.821C154.258 190.151 153.922 190.303 153.569 190.384Z" fill="#DBE4EF"/>
<path d="M161.943 183.862C163.423 183.523 164.896 184.446 165.236 185.927C165.575 187.407 164.652 188.88 163.171 189.22C161.691 189.559 160.218 188.636 159.878 187.155C159.539 185.675 160.462 184.202 161.943 183.862ZM161.765 183.087C159.861 183.523 158.666 185.43 159.103 187.333C159.539 189.236 161.446 190.432 163.349 189.995C165.253 189.559 166.448 187.652 166.011 185.749C165.575 183.845 163.668 182.65 161.765 183.087Z" fill="#DBE4EF"/>
<path d="M162.928 188.162L161.8 188.42L161.057 185.178L162.185 184.919C163.312 184.66 164.022 185.165 164.248 186.152C164.475 187.139 163.986 187.919 162.928 188.162ZM162.26 185.57L161.978 185.634L162.43 187.608L162.712 187.544C163.276 187.414 163.564 187.051 163.402 186.346C163.257 185.712 162.824 185.44 162.26 185.57Z" fill="#DBE4EF"/>
<path d="M135.719 200.563C137.2 200.224 138.673 201.147 139.013 202.628C139.352 204.108 138.429 205.581 136.948 205.921C135.468 206.26 133.995 205.337 133.655 203.856C133.315 202.376 134.239 200.903 135.719 200.563ZM135.558 199.858C133.654 200.295 132.459 202.201 132.896 204.105C133.332 206.008 135.239 207.203 137.142 206.767C139.046 206.33 140.241 204.423 139.804 202.52C139.368 200.617 137.461 199.422 135.558 199.858Z" fill="#DBE4EF"/>
<path d="M135.522 201.648L136.439 201.437L138.294 204.351L137.481 204.686L137.108 204.029L135.98 204.288L135.93 205.042L135.154 205.219L135.522 201.648ZM135.959 203.551L136.664 203.389L136.053 202.342L135.959 203.551Z" fill="#DBE4EF"/>
<path d="M145.237 198.38C146.717 198.04 148.191 198.964 148.53 200.444C148.87 201.924 147.946 203.398 146.466 203.737C144.985 204.077 143.512 203.153 143.173 201.673C142.833 200.192 143.757 198.719 145.237 198.38ZM145.075 197.675C143.172 198.111 141.977 200.018 142.413 201.921C142.85 203.824 144.756 205.02 146.66 204.583C148.563 204.146 149.758 202.24 149.322 200.337C148.885 198.433 146.979 197.238 145.075 197.675Z" fill="#DBE4EF"/>
<path d="M146.381 202.717L145.324 202.96L144.58 199.717L145.708 199.458C146.483 199.28 146.901 199.481 147.03 200.045C147.111 200.398 146.948 200.658 146.698 200.863C147.083 200.924 147.343 201.087 147.44 201.51C147.499 202.09 147.157 202.539 146.381 202.717ZM145.696 200.054L145.414 200.119L145.576 200.824L145.858 200.759C146.14 200.695 146.319 200.505 146.271 200.294C146.152 200.098 146.049 199.974 145.696 200.054ZM145.987 201.323L145.705 201.388L145.899 202.234L146.181 202.169C146.534 202.088 146.643 201.915 146.578 201.633C146.584 201.335 146.34 201.242 145.987 201.323Z" fill="#DBE4EF"/>
<path d="M154.753 196.198C156.233 195.858 157.706 196.782 158.046 198.262C158.385 199.743 157.462 201.216 155.981 201.555C154.501 201.895 153.028 200.971 152.688 199.491C152.349 198.011 153.272 196.537 154.753 196.198ZM154.591 195.493C152.688 195.929 151.492 197.836 151.929 199.739C152.365 201.643 154.272 202.838 156.175 202.401C158.079 201.965 159.274 200.058 158.837 198.155C158.401 196.252 156.494 195.056 154.591 195.493Z" fill="#DBE4EF"/>
<path d="M155.913 200.606C154.926 200.833 154.216 200.327 153.974 199.27C153.748 198.283 154.22 197.433 155.207 197.206C155.56 197.125 155.858 197.131 156.102 197.224L156.122 197.961C155.879 197.869 155.635 197.776 155.353 197.841C154.859 197.954 154.588 198.387 154.733 199.022C154.879 199.656 155.312 199.928 155.806 199.815C156.087 199.75 156.283 199.631 156.516 199.355L156.748 200.044C156.585 200.303 156.265 200.525 155.913 200.606Z" fill="#DBE4EF"/>
<path d="M164.27 194.014C165.751 193.675 167.224 194.598 167.563 196.079C167.903 197.559 166.979 199.032 165.499 199.372C164.019 199.711 162.545 198.788 162.206 197.307C161.866 195.827 162.79 194.354 164.27 194.014ZM164.109 193.309C162.205 193.746 161.01 195.652 161.447 197.556C161.883 199.459 163.79 200.654 165.693 200.218C167.596 199.781 168.791 197.875 168.355 195.971C167.918 194.068 166.012 192.873 164.109 193.309Z" fill="#DBE4EF"/>
<path d="M165.272 198.384L164.144 198.643L163.4 195.4L164.528 195.142C165.656 194.883 166.366 195.388 166.592 196.375C166.802 197.291 166.329 198.142 165.272 198.384ZM164.603 195.792L164.321 195.857L164.774 197.831L165.056 197.766C165.62 197.637 165.908 197.274 165.746 196.569C165.584 195.864 165.167 195.663 164.603 195.792Z" fill="#DBE4EF"/>
<path d="M242.331 190.135L209.763 197.605C208.141 197.977 206.582 196.999 206.21 195.378L199.872 167.744C199.5 166.122 200.478 164.562 202.099 164.191L234.668 156.721C236.289 156.349 237.849 157.327 238.221 158.948L244.559 186.582C244.93 188.204 243.953 189.763 242.331 190.135Z" fill="#EAF0F8"/>
<path d="M212.477 170.938L198.942 174.042C198.378 174.171 197.771 173.791 197.642 173.227L196.979 170.337C196.85 169.773 197.23 169.166 197.794 169.037L211.329 165.933C211.893 165.803 212.499 166.183 212.629 166.747L213.291 169.638C213.421 170.202 213.041 170.808 212.477 170.938Z" fill="#DBE4EF"/>
<path d="M211.909 177.522L197.951 180.724C197.387 180.853 196.781 180.473 196.651 179.909L195.989 177.018C195.859 176.454 196.24 175.848 196.804 175.718L210.761 172.517C211.325 172.388 211.932 172.768 212.061 173.332L212.724 176.222C212.854 176.786 212.473 177.393 211.909 177.522Z" fill="#DBE4EF"/>
<path d="M216.331 182.889L203.078 185.929C202.514 186.058 201.908 185.678 201.778 185.114L201.116 182.223C200.986 181.659 201.367 181.053 201.93 180.923L215.183 177.884C215.747 177.755 216.354 178.135 216.483 178.699L217.146 181.589C217.276 182.153 216.895 182.76 216.331 182.889Z" fill="#DBE4EF"/>
<path d="M133.123 100.044L86.5645 112.945L99.4654 159.504L146.024 146.603L133.123 100.044Z" fill="#FFDC6E"/>
<path d="M55.4196 231.891C54.2316 232.534 53.8177 233.965 54.445 235.083L62.3286 250.044C62.9721 251.232 64.4027 251.646 65.5202 251.019L98.1398 233.743C93.2084 228.418 88.7441 222.541 84.92 216.221L55.4196 231.891Z" fill="#FFCD00"/>
<path d="M134.853 211.67L126.969 196.708C126.326 195.52 124.895 195.106 123.778 195.733L85.0064 216.275C88.8305 222.596 93.2949 228.473 98.2262 233.797L133.894 214.932C134.996 214.234 135.41 212.803 134.853 211.67Z" fill="#FFCD00"/>
<path d="M92.7114 219.775L89.5645 213.818" stroke="#E8B156" stroke-width="2" stroke-miterlimit="10" stroke-linejoin="round"/>
<path d="M74.5928 229.421L71.4297 223.395" stroke="#E8B156" stroke-width="2" stroke-miterlimit="10" stroke-linejoin="round"/>
<path d="M64.8565 232.915L62.3691 228.217" stroke="#E8B156" stroke-width="2" stroke-miterlimit="10" stroke-linejoin="round"/>
<path d="M82.9912 223.34L80.5039 218.643" stroke="#E8B156" stroke-width="2" stroke-miterlimit="10" stroke-linejoin="round"/>
<path d="M101.11 213.692L98.623 208.994" stroke="#E8B156" stroke-width="2" stroke-miterlimit="10" stroke-linejoin="round"/>
<path d="M119.247 204.116L116.76 199.418" stroke="#E8B156" stroke-width="2" stroke-miterlimit="10" stroke-linejoin="round"/>
<path d="M110.846 210.199L107.699 204.242" stroke="#E8B156" stroke-width="2" stroke-miterlimit="10" stroke-linejoin="round"/>
<path d="M120.161 128.936L112.494 131.061L116.164 144.303L123.83 142.179L120.161 128.936Z" fill="#FF2C77"/>
<path d="M121.282 133.083L113.592 135.143" stroke="#DD316F" stroke-width="2" stroke-miterlimit="10" stroke-linecap="round" stroke-linejoin="round"/>
<path d="M121.993 136.184L114.319 138.315" stroke="#DD316F" stroke-width="2" stroke-miterlimit="10" stroke-linecap="round" stroke-linejoin="round"/>
<path d="M122.721 139.356L115.048 141.487" stroke="#DD316F" stroke-width="2" stroke-miterlimit="10" stroke-linecap="round" stroke-linejoin="round"/>
<path d="M126.425 145.483L115.612 148.483C115.189 148.58 114.81 148.222 114.94 147.821L116.132 144.282L123.806 142.151L126.654 144.54C127.017 144.828 126.848 145.386 126.425 145.483Z" fill="#B9C3C5"/>
<path d="M124.789 108.906L98.2053 116.265L94.6825 119.67L98.308 132.566L103.093 133.694L129.606 126.352L133.113 122.876L129.574 110.035L124.789 108.906Z" fill="#B9C3C5"/>
<path d="M103.29 133.576L98.4883 116.201" stroke="#ADB2C6" stroke-width="2" stroke-miterlimit="10" stroke-linejoin="round"/>
<path d="M124.789 108.906L129.606 126.352" stroke="#ADB2C6" stroke-width="2" stroke-miterlimit="10" stroke-linejoin="round"/>
<path d="M294.266 136.077L259.492 159.486L255.563 162.094C255.336 162.072 255.092 161.979 254.935 161.941C253.315 161.348 252.417 159.699 252.782 158.057L256.836 155.347L291.54 131.953L294.266 136.077Z" fill="#D20053"/>
<path d="M235.228 202.523C225.717 192.758 221.766 179.417 224.591 166.823L226.997 155.957L228.347 156.019C235.502 156.158 239.51 154.868 241.734 149.683L242.267 148.448L269.954 154.638L269.893 155.988C269.696 161.598 272.727 164.465 279.337 167.401L280.572 167.934L278.167 178.8C275.342 191.394 266.069 201.757 253.361 206.527L243.116 210.064L235.228 202.523Z" fill="#AEC7FF"/>
<path d="M245.404 155L264.323 159.194C265.312 165.126 269.384 168.645 273.95 171.085L272.456 177.512C270.073 188.15 262.147 196.943 251.31 201.135L244.509 203.511L239.344 198.463C231.262 190.077 227.851 178.764 230.234 168.126L231.658 161.715C233.344 161.625 234.857 161.426 236.196 161.119C240.214 160.197 243.236 158.169 245.404 155ZM242.252 148.377L241.719 149.612C240.267 152.988 238.129 154.665 234.816 155.425C232.983 155.845 230.858 155.962 228.316 155.877L226.966 155.816L224.561 166.681C221.736 179.276 225.756 192.601 235.197 202.382L242.944 209.955L253.189 206.418C265.951 201.561 275.224 191.198 277.995 178.69L280.4 167.825L279.165 167.292C272.572 164.426 269.54 161.56 269.721 155.879L269.782 154.529L242.252 148.377Z" fill="#7196FF"/>
<path d="M256.951 158.436C257.253 160.074 256.275 161.634 254.788 162.271C254.593 162.39 254.382 162.439 254.154 162.417C252.446 162.734 250.87 161.686 250.287 160.113C250.238 159.902 250.206 159.761 250.157 159.549C249.84 157.841 250.888 156.265 252.39 155.698C252.602 155.649 252.743 155.617 252.954 155.569C254.662 155.251 256.325 156.354 256.838 157.943C256.87 158.084 256.919 158.295 256.951 158.436Z" fill="#DCE3EF"/>
<path d="M275.049 120.227L256.838 157.943L254.772 162.201C254.577 162.32 254.365 162.369 254.138 162.347C252.43 162.664 250.854 161.616 250.27 160.043L252.374 155.628L270.515 117.928L275.049 120.227Z" fill="#FF2C77"/>
<g opacity="0.9">
<path d="M58.5667 206.01L56.3403 204.641L58.9151 200.43L61.1415 201.799C61.818 202.235 62.0219 203.096 61.6357 203.775L60.5427 205.516C60.1565 206.195 59.2432 206.446 58.5667 206.01Z" fill="#FF2C77"/>
<path d="M58.1963 199.965L16.8691 174.635L14.2866 178.848L55.6137 204.179L58.1963 199.965Z" fill="#FFDC6E"/>
<path d="M58.9254 200.41L57.0527 199.262L54.4702 203.475L56.3429 204.623L58.9254 200.41Z" fill="#C9CDE0"/>
</g>
<path d="M16.8538 174.637L14.2791 178.849L10.7092 174.559L9.72373 173.356C9.58218 173.199 9.74239 173.007 9.94178 173.018L11.4737 173.35L16.8538 174.637Z" fill="#FAF7F1"/>
<path d="M11.3704 173.393L10.6584 174.555L9.67295 173.352C9.5314 173.195 9.69161 173.003 9.891 173.014L11.3704 173.393Z" fill="#E8B156"/>
<path d="M261.176 172.976C259.638 171.771 257.937 170.825 256.128 170.053C255.769 170.432 255.427 170.882 255.085 171.331C253.135 170.591 251.091 170.095 249.059 169.968C248.946 169.474 248.816 168.91 248.703 168.417C246.757 168.344 244.789 168.498 242.87 168.864C238.294 173.179 236.2 177.963 235.576 183.003C237.275 184.914 239.295 186.602 241.516 187.874C242.194 187.273 242.856 186.602 243.432 185.876C242.723 185.371 242.013 184.866 241.429 184.258C241.624 184.139 241.835 184.09 242.101 183.955C245.886 186.871 250.813 187.968 255.481 186.971C255.6 187.166 255.79 187.346 255.979 187.525C255.15 187.789 254.304 187.983 253.512 188.091C253.722 189.007 254.073 189.891 254.408 190.705C256.957 190.491 259.494 189.909 261.849 188.85C263.537 183.269 263.148 178.015 261.176 172.976ZM244.896 181.904C243.568 181.615 242.789 180.161 243.133 178.747C243.476 177.333 244.724 176.304 246.139 176.648C247.466 176.937 248.245 178.391 247.902 179.805C247.558 181.22 246.223 182.194 244.896 181.904ZM253.664 183.9C252.336 183.611 251.558 182.157 251.901 180.743C252.228 179.258 253.493 178.3 254.907 178.644C256.322 178.987 257.014 180.387 256.67 181.801C256.327 183.215 254.992 184.189 253.664 183.9Z" fill="#275CE6"/>
</g>
<defs>
<clipPath id="clip0_14123_97123">
<rect width="468.88" height="224.206" fill="white" transform="translate(-90 104.816) rotate(-12.9174)"/>
</clipPath>
</defs>
</svg>
