<svg width="8" height="7" viewBox="0 0 8 7" fill="none" xmlns="http://www.w3.org/2000/svg">
<path d="M5.57977 0.729515H2.70977C2.662 0.728908 2.61487 0.740536 2.57286 0.763291C2.53085 0.786046 2.49536 0.819171 2.46977 0.859515L0.999771 3.25952C0.975259 3.30391 0.962402 3.3538 0.962402 3.40452C0.962402 3.45523 0.975259 3.50512 0.999771 3.54952L2.46977 5.99952C2.49333 6.04241 2.52811 6.0781 2.57038 6.10276C2.61265 6.12742 2.66083 6.14012 2.70977 6.13952H5.57977C5.62871 6.14012 5.67689 6.12742 5.71916 6.10276C5.76144 6.0781 5.79621 6.04241 5.81977 5.99952L7.24977 3.59952C7.27428 3.55512 7.28714 3.50523 7.28714 3.45452C7.28714 3.4038 7.27428 3.35391 7.24977 3.30952L5.81977 0.909515C5.80096 0.859836 5.76841 0.816533 5.72591 0.784661C5.68342 0.752789 5.63273 0.733662 5.57977 0.729515V0.729515Z" fill="white"/>
</svg>
